<mxfile host="app.diagrams.net" modified="2023-12-02T22:34:07.935Z" agent="Mozilla/5.0 (X11; Linux x86_64; rv:120.0) Gecko/20100101 Firefox/120.0" etag="uzYQqQiJKd5tntjaw1VY" version="22.1.5" type="github">
  <diagram name="Page-1" id="oVryCvC9w7wHQF4StLB2">
    <mxGraphModel dx="1618" dy="751" grid="0" gridSize="10" guides="1" tooltips="1" connect="1" arrows="1" fold="1" page="0" pageScale="1" pageWidth="850" pageHeight="1100" math="0" shadow="0">
      <root>
        <mxCell id="0" />
        <mxCell id="1" parent="0" />
        <mxCell id="mBP6HkRpbQCIY3WwOYIv-1" value="&lt;font data-font-src=&quot;https://fonts.googleapis.com/css?family=Atkinson+Hyperlegible&quot; face=&quot;Atkinson Hyperlegible&quot;&gt;drv: A&lt;/font&gt;" style="rounded=1;whiteSpace=wrap;html=1;fontSize=16;fillColor=#dae8fc;strokeColor=#6c8ebf;" vertex="1" parent="1">
          <mxGeometry x="140" y="174" width="120" height="60" as="geometry" />
        </mxCell>
        <mxCell id="mBP6HkRpbQCIY3WwOYIv-3" value="&lt;font data-font-src=&quot;https://fonts.googleapis.com/css?family=Atkinson+Hyperlegible&quot; face=&quot;Atkinson Hyperlegible&quot;&gt;dep: 0&lt;/font&gt;" style="rounded=0;whiteSpace=wrap;html=1;fontSize=16;" vertex="1" parent="1">
          <mxGeometry x="140" y="51" width="120" height="60" as="geometry" />
        </mxCell>
        <mxCell id="mBP6HkRpbQCIY3WwOYIv-4" value="" style="endArrow=classic;html=1;rounded=0;fontSize=12;startSize=8;endSize=8;exitX=0.5;exitY=1;exitDx=0;exitDy=0;entryX=0.5;entryY=0;entryDx=0;entryDy=0;edgeStyle=orthogonalEdgeStyle;" edge="1" parent="1" source="mBP6HkRpbQCIY3WwOYIv-3" target="mBP6HkRpbQCIY3WwOYIv-1">
          <mxGeometry width="50" height="50" relative="1" as="geometry">
            <mxPoint x="114" y="59" as="sourcePoint" />
            <mxPoint x="225" y="175" as="targetPoint" />
          </mxGeometry>
        </mxCell>
        <mxCell id="mBP6HkRpbQCIY3WwOYIv-5" value="&lt;font data-font-src=&quot;https://fonts.googleapis.com/css?family=Atkinson+Hyperlegible&quot; face=&quot;Atkinson Hyperlegible&quot;&gt;dep: 1&lt;/font&gt;" style="rounded=0;whiteSpace=wrap;html=1;fontSize=16;" vertex="1" parent="1">
          <mxGeometry x="-59" y="111" width="120" height="60" as="geometry" />
        </mxCell>
        <mxCell id="mBP6HkRpbQCIY3WwOYIv-11" value="" style="endArrow=classic;html=1;rounded=0;fontSize=12;startSize=8;endSize=8;exitX=0.5;exitY=0;exitDx=0;exitDy=0;entryX=0;entryY=0.25;entryDx=0;entryDy=0;edgeStyle=orthogonalEdgeStyle;elbow=vertical;" edge="1" parent="1" source="mBP6HkRpbQCIY3WwOYIv-5" target="mBP6HkRpbQCIY3WwOYIv-3">
          <mxGeometry width="50" height="50" relative="1" as="geometry">
            <mxPoint x="-8" y="85" as="sourcePoint" />
            <mxPoint x="42" y="35" as="targetPoint" />
          </mxGeometry>
        </mxCell>
        <mxCell id="mBP6HkRpbQCIY3WwOYIv-12" style="edgeStyle=none;curved=1;rounded=0;orthogonalLoop=1;jettySize=auto;html=1;exitX=0.75;exitY=0;exitDx=0;exitDy=0;fontSize=12;startSize=8;endSize=8;" edge="1" parent="1" source="mBP6HkRpbQCIY3WwOYIv-1" target="mBP6HkRpbQCIY3WwOYIv-1">
          <mxGeometry relative="1" as="geometry" />
        </mxCell>
        <mxCell id="mBP6HkRpbQCIY3WwOYIv-13" value="&lt;div&gt;&lt;font data-font-src=&quot;https://fonts.googleapis.com/css?family=Atkinson+Hyperlegible&quot; face=&quot;Atkinson Hyperlegible&quot;&gt;dep: 2&lt;/font&gt;&lt;/div&gt;" style="rounded=0;whiteSpace=wrap;html=1;fontSize=16;" vertex="1" parent="1">
          <mxGeometry x="-59" y="234" width="120" height="60" as="geometry" />
        </mxCell>
        <mxCell id="mBP6HkRpbQCIY3WwOYIv-14" value="" style="endArrow=classic;html=1;rounded=0;fontSize=12;startSize=8;endSize=8;entryX=0.5;entryY=1;entryDx=0;entryDy=0;exitX=0.5;exitY=0;exitDx=0;exitDy=0;edgeStyle=orthogonalEdgeStyle;" edge="1" parent="1" source="mBP6HkRpbQCIY3WwOYIv-13" target="mBP6HkRpbQCIY3WwOYIv-5">
          <mxGeometry width="50" height="50" relative="1" as="geometry">
            <mxPoint x="6" y="241" as="sourcePoint" />
            <mxPoint x="56" y="191" as="targetPoint" />
          </mxGeometry>
        </mxCell>
        <mxCell id="mBP6HkRpbQCIY3WwOYIv-15" style="edgeStyle=none;curved=1;rounded=0;orthogonalLoop=1;jettySize=auto;html=1;entryX=0.5;entryY=0;entryDx=0;entryDy=0;fontSize=12;startSize=8;endSize=8;" edge="1" parent="1" source="mBP6HkRpbQCIY3WwOYIv-13" target="mBP6HkRpbQCIY3WwOYIv-13">
          <mxGeometry relative="1" as="geometry" />
        </mxCell>
        <mxCell id="mBP6HkRpbQCIY3WwOYIv-18" value="" style="edgeStyle=elbowEdgeStyle;elbow=horizontal;endArrow=classic;html=1;curved=0;rounded=0;endSize=8;startSize=8;fontSize=12;exitX=1;exitY=0.5;exitDx=0;exitDy=0;entryX=0;entryY=0.75;entryDx=0;entryDy=0;" edge="1" parent="1" source="mBP6HkRpbQCIY3WwOYIv-13" target="mBP6HkRpbQCIY3WwOYIv-3">
          <mxGeometry width="50" height="50" relative="1" as="geometry">
            <mxPoint x="81" y="245" as="sourcePoint" />
            <mxPoint x="131" y="195" as="targetPoint" />
          </mxGeometry>
        </mxCell>
      </root>
    </mxGraphModel>
  </diagram>
</mxfile>
